<svg width="48" height="48" viewBox="0 0 48 48" fill="none" xmlns="http://www.w3.org/2000/svg">
  <!-- 旗杆 -->
  <rect x="6" y="8" width="2" height="32" fill="#6B7280"/>
  
  <!-- 美国国旗 -->
  <rect x="8" y="8" width="32" height="20" fill="#DC2626" rx="1"/>
  
  <!-- 蓝色区域 -->
  <rect x="8" y="8" width="12" height="10" fill="#1E40AF" rx="1"/>
  
  <!-- 白色条纹 -->
  <rect x="8" y="12" width="32" height="1.5" fill="white"/>
  <rect x="8" y="16" width="32" height="1.5" fill="white"/>
  <rect x="8" y="20" width="32" height="1.5" fill="white"/>
  <rect x="8" y="24" width="32" height="1.5" fill="white"/>
  
  <!-- 星星 -->
  <g fill="white">
    <polygon points="11,9.5 11.5,11 13,11 11.75,11.75 12.25,13.25 11,12.5 9.75,13.25 10.25,11.75 9,11 10.5,11"/>
    <polygon points="15,9.5 15.5,11 17,11 15.75,11.75 16.25,13.25 15,12.5 13.75,13.25 14.25,11.75 13,11 14.5,11"/>
    <polygon points="19,9.5 19.5,11 21,11 19.75,11.75 20.25,13.25 19,12.5 17.75,13.25 18.25,11.75 17,11 18.5,11"/>
    <polygon points="13,11.5 13.5,13 15,13 13.75,13.75 14.25,15.25 13,14.5 11.75,15.25 12.25,13.75 11,13 12.5,13"/>
    <polygon points="17,11.5 17.5,13 19,13 17.75,13.75 18.25,15.25 17,14.5 15.75,15.25 16.25,13.75 15,13 16.5,13"/>
  </g>
  
  <!-- 支持图标 -->
  <circle cx="32" cy="32" r="8" fill="#10B981" stroke="#059669" stroke-width="2"/>
  
  <!-- 24/7 文字 -->
  <text x="32" y="30" text-anchor="middle" font-family="Arial, sans-serif" font-size="6" font-weight="bold" fill="white">24/7</text>
  <text x="32" y="36" text-anchor="middle" font-family="Arial, sans-serif" font-size="4" font-weight="bold" fill="white">SUPPORT</text>
  
  <!-- 电话图标 -->
  <path d="M28 38C28 38 26 40 30 42C34 40 32 38 32 38" stroke="white" stroke-width="1.5" fill="none"/>
</svg>