<svg width="48" height="48" viewBox="0 0 48 48" fill="none" xmlns="http://www.w3.org/2000/svg">
  <!-- 主齿轮 -->
  <path d="M24 8L26.5 12H21.5L24 8ZM32 12L29.5 16H34.5L32 12ZM36 20L32 22.5V17.5L36 20ZM36 28L32 25.5V30.5L36 28ZM32 36L34.5 32H29.5L32 36ZM24 40L21.5 36H26.5L24 40ZM16 36L18.5 32H13.5L16 36ZM12 28L16 30.5V25.5L12 28ZM12 20L16 17.5V22.5L12 20ZM16 12L13.5 16H18.5L16 12Z" fill="#E0E7FF" stroke="#6366F1" stroke-width="1.5"/>
  
  <!-- 齿轮中心 -->
  <circle cx="24" cy="24" r="8" fill="#F8FAFC" stroke="#6366F1" stroke-width="2"/>
  
  <!-- 扳手 -->
  <path d="M28 20L32 16L34 18L30 22L32 24L30 26L28 24L26 26L24 24L26 22L28 20Z" fill="#F59E0B" stroke="#D97706" stroke-width="1"/>
  
  <!-- 小齿轮 -->
  <circle cx="36" cy="12" r="4" fill="#FEF3C7" stroke="#F59E0B" stroke-width="1.5"/>
  <path d="M36 8V16M32 12H40M33.17 9.17L38.83 14.83M38.83 9.17L33.17 14.83" stroke="#F59E0B" stroke-width="1"/>
  
  <!-- 定制标识 -->
  <rect x="14" y="32" width="12" height="8" rx="2" fill="#10B981" stroke="#059669" stroke-width="1"/>
  <text x="20" y="37" text-anchor="middle" font-family="Arial, sans-serif" font-size="6" font-weight="bold" fill="white">CUSTOM</text>
</svg>